<?xml version="1.0" encoding="utf-8"?>
<!DOCTYPE svg PUBLIC "-//W3C//DTD SVG 1.1//EN" "http://www.w3.org/Graphics/SVG/1.1/DTD/svg11.dtd">
<svg version="1.1" id="Layer_1" xmlns="http://www.w3.org/2000/svg" xmlns:xlink="http://www.w3.org/1999/xlink" x="0px" y="0px" width="557.315px" height="154.245px" viewBox="0 0 557.315 154.245" enable-background="new 0 0 557.315 154.245" xml:space="preserve">
<path fill="#0089CF" d="M155.695,0H131.14c-1.753,0-3.338,1.464-3.338,3.127v145.995c0,1.696,1.642,3.325,3.338,3.325h24.556 c1.797,0,2.913-1.729,2.913-3.325V3.127C158.608,1.343,157.336,0,155.695,0"/>
<path fill="#0089CF" d="M29.277,0H9.008C4.041,0,0,4.03,0,8.998v139.778c0,1.596,1.396,3.316,3.616,3.316h20.27 c4.979,0,9.008-4.009,9.008-8.985V3.127C32.894,1.343,31.319,0,29.277,0"/>
<path fill="#0089CF" d="M251.764,46.692c-7.623-6.15-19.019-9.287-33.831-9.287c-12.779,0-26.61,2.266-34.567,4.196 c-2.021,0.5-3.147,1.752-3.147,3.537v16.309c0,1.829,0.893,2.722,2.723,2.722h1.005c5.971-0.591,20.348-1.415,33.385-1.415 c9.588,0,15.984,2.512,15.984,14.777v8.136h-11.766c-17.133,0-29.288,2.623-37.112,8.003c-7.713,5.314-11.452,13.506-11.452,25.082 v1.819c0,29.31,20.984,33.674,33.474,33.674c10.716,0,18.652-2.566,27.446-8.863l1.43-1.025v4.955c0,1.741,1.372,3.136,3.104,3.136 h22.545c1.721,0,3.104-1.395,3.104-3.136v-71.78C264.087,63.689,259.945,53.332,251.764,46.692z M233.928,126.754L233.414,127 c-6.083,3.035-11.598,4.508-16.877,4.508c-8.594,0-13.572-1.784-13.572-10.937v-1.819c0-11.353,5.034-15.572,18.584-15.572h12.379 V126.754z"/>
<path fill="#0089CF" d="M41.545,80.723c0.323,25.504,14.174,49.202,36.32,62.016c10.726,6.193,22.947,9.544,35.404,9.709 c-0.146-12.457-3.494-24.688-9.699-35.416C90.745,94.899,67.06,81.046,41.545,80.723"/>
<path fill="#0089CF" d="M41.545,71.737c25.503-0.334,49.2-14.186,62.025-36.331c6.205-10.737,9.553-22.96,9.699-35.406 c-12.457,0.157-24.656,3.507-35.404,9.712C55.719,22.514,41.868,46.222,41.545,71.737"/>
<path fill="#0089CF" d="M417.66,37.405c-12.937,0-21.676,2.79-32.269,10.29l-1.406,1.016v-6.574c0-1.729-1.406-3.126-3.125-3.126 h-22.513c-1.73,0-3.137,1.396-3.137,3.126v106.985c0,1.696,1.618,3.325,3.325,3.325h24.333c1.675,0,3.125-1.55,3.125-3.325V69.35 l0.491-0.257c7.399-3.93,13.527-6.553,19.321-6.553c13.472,0,15.771,6.061,15.771,19.61v66.972c0,1.775,1.44,3.325,3.125,3.325 h24.321c1.719,0,3.338-1.629,3.338-3.325V82.15C452.362,50.786,441.981,37.405,417.66,37.405"/>
<path fill="#0089CF" d="M340.377,37.405c-9.723,0-19.398,3.438-26.576,9.441l-1.474,1.229v-5.939c0-1.729-1.395-3.126-3.104-3.126 h-23.931c-1.741,0-3.147,1.396-3.147,3.126v106.985c0,1.696,1.631,3.325,3.338,3.325h24.345c1.651,0,3.102-1.55,3.102-3.325v-79.17 l0.492-0.256c8.884-4.8,17.512-7.156,26.363-7.156h1.596c1.206,0,2.132-1.528,2.132-2.902V40.519 C343.513,38.789,342.105,37.405,340.377,37.405"/>
<path fill="#0089CF" d="M544.971,46.692c-7.646-6.15-19.03-9.287-33.809-9.287c-12.791,0-26.632,2.266-34.579,4.196 c-2.021,0.5-3.147,1.752-3.147,3.537v16.309c0,1.829,0.915,2.722,2.724,2.722h1.004c5.961-0.591,20.348-1.415,33.374-1.415 c9.588,0,15.994,2.512,15.994,14.777v8.136h-11.753c-17.145,0-29.322,2.623-37.135,8.003c-7.714,5.314-11.44,13.506-11.44,25.082 v1.819c0,29.31,20.973,33.674,33.474,33.674c10.714,0,18.64-2.566,27.446-8.863l1.406-1.025v4.955c0,1.741,1.405,3.136,3.126,3.136 h22.536c1.718,0,3.124-1.395,3.124-3.136v-71.78C557.315,63.689,553.151,53.332,544.971,46.692z M527.135,126.754L526.633,127 c-6.072,3.035-11.598,4.508-16.9,4.508c-8.605,0-13.549-1.784-13.549-10.937v-1.819c0-11.353,5.022-15.572,18.595-15.572h12.356 V126.754z"/>
</svg>